<?xml version="1.0" standalone="no"?>
<!DOCTYPE svg PUBLIC "-//W3C//DTD SVG 20010904//EN"
 "http://www.w3.org/TR/2001/REC-SVG-20010904/DTD/svg10.dtd">
<svg version="1.0" xmlns="http://www.w3.org/2000/svg"
 width="1188.000000pt" height="1280.000000pt" viewBox="0 0 1188.000000 1280.000000"
 preserveAspectRatio="xMidYMid meet">
<metadata>
Created by potrace 1.16, written by Peter Selinger 2001-2019
</metadata>
<g transform="translate(0.000000,1280.000000) scale(0.100000,-0.100000)"
fill="#000000" stroke="none">
<path d="M4730 12792 c0 -5 15 -21 32 -38 l33 -29 -25 30 -25 30 27 -24 c15
-13 24 -29 22 -35 -3 -7 6 -21 18 -32 23 -19 23 -19 8 1 -15 20 -14 20 8 1 23
-20 30 -32 12 -21 -24 15 -5 -14 42 -65 28 -30 45 -46 37 -35 -14 20 -13 20 9
1 23 -20 30 -32 12 -21 -24 15 -5 -14 42 -65 28 -30 45 -46 37 -35 -14 20 -13
20 9 1 23 -20 30 -32 12 -21 -23 14 -8 -13 22 -41 27 -24 29 -25 13 -4 l-20
25 22 -18 c12 -11 20 -24 17 -31 -3 -7 6 -21 18 -32 23 -19 23 -19 8 1 -15 20
-14 20 8 1 23 -20 30 -32 12 -21 -24 15 -5 -14 42 -65 28 -30 45 -46 37 -35
-14 20 -13 20 9 1 23 -20 27 -27 15 -25 -5 1 -264 0 -578 -2 l-570 -4 590 -5
590 -5 -592 -3 -593 -2 -2 -102 -2 -103 -6 105 -6 105 -2 -102 -2 -103 -867
-3 -868 -2 880 -5 880 -5 -905 -5 -905 -5 -75 -23 c-170 -53 -339 -151 -490
-287 l-85 -77 80 77 c99 95 175 151 297 215 103 55 114 68 15 19 -106 -53
-224 -137 -318 -226 -79 -76 -113 -118 -76 -97 6 4 3 -2 -7 -14 -23 -26 -34
-29 -15 -4 11 14 10 13 -9 -2 -23 -20 -31 -42 -9 -30 6 4 3 -2 -7 -14 -23 -26
-34 -29 -15 -4 11 14 10 13 -9 -2 -23 -20 -31 -42 -9 -30 7 4 9 3 4 -2 -5 -5
-14 -9 -20 -9 -5 0 -12 -6 -15 -14 -3 -9 0 -11 8 -6 9 5 11 4 6 -4 -4 -6 -11
-9 -16 -6 -9 5 -40 -38 -40 -55 0 -6 5 -8 12 -4 7 4 8 3 4 -5 -4 -6 -11 -9
-16 -6 -5 3 -16 -8 -25 -24 -17 -35 -19 -45 -5 -36 6 3 7 -1 4 -9 -3 -9 -10
-14 -16 -13 -11 2 -57 -106 -57 -133 0 -8 11 13 23 48 13 35 27 66 32 70 4 4
4 -2 -1 -13 -15 -39 -46 -140 -57 -185 -6 -25 -14 -216 -18 -425 l-7 -380 1
389 c1 214 -2 372 -6 350 -4 -21 -7 -195 -7 -386 -1 -294 -3 -346 -15 -344 -8
1 -79 65 -157 141 -79 77 -132 131 -118 120 13 -10 80 -73 148 -140 105 -102
114 -108 55 -42 -99 112 -314 290 -330 274 -3 -2 15 -16 40 -31 25 -14 48 -32
52 -38 4 -7 -6 -2 -23 10 -52 37 -136 72 -174 72 -56 0 -293 -147 -448 -279
-35 -30 -61 -49 -57 -43 10 17 -9 15 -23 -1 -6 -8 -7 -18 -3 -22 4 -5 2 -5 -4
-2 -13 8 -87 -66 -77 -77 5 -4 2 -6 -6 -4 -7 2 -16 -3 -19 -11 -3 -9 0 -11 9
-6 8 5 3 -4 -10 -18 -30 -33 -42 -36 -15 -4 10 12 4 9 -14 -7 -33 -31 -45 -59
-15 -35 15 11 14 10 -1 -9 -21 -24 -32 -29 -20 -9 5 8 2 8 -9 -2 -19 -15 -23
-36 -5 -25 7 5 8 3 4 -5 -5 -7 -11 -10 -14 -7 -7 7 -32 -13 -32 -26 0 -6 8 -4
18 3 15 13 16 12 3 -3 -7 -10 -17 -16 -21 -13 -5 3 -20 -16 -34 -41 -29 -51
-33 -69 -14 -58 11 6 11 4 0 -7 -19 -21 -15 -105 8 -149 23 -45 19 -55 -4 -12
-8 15 -15 21 -16 14 0 -21 31 -62 43 -55 6 3 7 1 3 -5 -8 -13 43 -94 55 -87 4
3 11 0 15 -6 4 -8 3 -9 -4 -5 -7 4 -12 3 -12 -2 0 -12 25 -33 32 -27 3 3 13
-5 24 -17 15 -18 16 -20 2 -9 -40 30 -12 -7 87 -120 58 -65 105 -115 105 -111
0 4 -4 13 -10 20 -5 7 -2 6 7 -2 14 -13 14 -18 3 -31 -11 -13 -9 -20 11 -42
13 -14 18 -23 12 -19 -29 17 -9 -13 39 -59 l53 -50 -45 50 -45 50 58 -55 c54
-51 77 -79 40 -49 -10 9 -15 10 -12 2 5 -14 108 -123 117 -123 3 0 -12 19 -33
43 l-40 42 48 -45 c46 -43 58 -58 36 -44 -26 16 2 -20 106 -133 61 -67 114
-121 120 -122 5 -1 -13 23 -40 52 l-50 52 58 -55 c56 -53 69 -68 46 -54 -26
16 1 -19 96 -124 55 -61 104 -111 110 -111 5 -1 -13 23 -40 52 l-50 52 58 -55
c55 -52 69 -68 47 -55 -6 3 -10 3 -10 0 0 -8 291 -325 298 -325 3 0 -5 12 -19
28 -23 26 -23 26 9 -2 31 -29 42 -43 22 -31 -11 7 -12 -7148 -1 -7199 3 -17 6
1594 6 3580 l0 3609 5 -3605 c5 -3395 6 -3609 23 -3669 10 -35 15 -66 12 -69
-3 -3 -5 3 -5 13 0 10 -3 15 -6 12 -16 -15 98 -273 116 -262 5 3 12 0 16 -6 5
-8 3 -9 -6 -4 -8 5 -11 3 -8 -6 3 -8 10 -14 16 -14 5 0 14 -4 19 -9 5 -5 2 -6
-6 -1 -9 5 -12 3 -9 -6 3 -8 10 -14 16 -14 5 0 14 -4 19 -9 5 -5 2 -6 -6 -1
-9 5 -12 3 -9 -6 3 -8 10 -14 16 -14 5 0 14 -4 19 -9 5 -5 3 -6 -4 -2 -22 12
-14 -10 9 -30 22 -19 23 -19 8 1 -11 15 -7 14 13 -4 28 -25 38 -43 12 -21 -8
7 -15 8 -15 3 0 -22 220 -222 295 -268 42 -26 22 -8 -65 57 -41 31 -104 87
-140 124 -62 65 -61 64 20 -12 175 -164 356 -266 550 -308 69 -15 416 -16
4345 -14 l4270 3 90 28 c204 64 399 179 573 339 l97 90 -96 -94 c-111 -108
-213 -182 -354 -255 -55 -29 -97 -52 -92 -53 18 0 180 88 262 144 87 59 305
258 305 279 0 5 -8 3 -17 -4 -10 -7 -7 -1 6 14 27 30 41 37 20 9 -11 -14 -10
-13 9 2 23 20 31 42 10 30 -8 -4 -10 -3 -5 2 5 5 14 9 19 9 6 0 13 6 16 14 3
9 0 11 -9 5 -12 -7 -12 -5 0 9 16 20 25 22 16 5 -4 -7 3 -2 15 11 11 13 19 30
16 38 -3 7 0 12 6 10 6 -1 26 27 44 63 35 68 41 85 24 75 -6 -3 -7 1 -4 9 3 9
10 14 14 11 4 -3 11 3 14 12 4 9 2 19 -3 22 -6 4 -6 12 -1 21 9 13 10 13 11 0
0 -10 3 -8 9 5 12 28 11 56 -1 30 -6 -14 -7 -7 -2 20 11 55 7 1513 -6 2720 -6
550 -16 1425 -21 1945 -6 520 -15 1359 -20 1865 -5 506 -14 1386 -20 1955 -5
569 -11 1161 -13 1315 -2 154 -1 253 3 220 l7 -60 0 60 c1 33 -3 71 -7 85 l-8
25 -2 -25 c-2 -24 -3 -23 -10 5 -4 17 -8 39 -8 50 l-1 20 9 -20 9 -20 0 20 c0
11 -4 29 -9 40 l-9 20 -1 -20 -1 -20 -9 20 c-5 11 -9 27 -9 35 -1 13 0 13 9 0
9 -13 10 -13 10 0 0 8 -5 22 -10 30 -9 13 -10 13 -10 0 0 -13 -1 -13 -10 0 -5
9 -5 17 1 20 6 4 3 21 -6 44 -9 20 -19 35 -24 32 -4 -3 -7 5 -7 17 1 12 -4 21
-10 20 -6 -1 -10 8 -10 20 1 12 -4 22 -11 22 -6 0 -15 4 -20 9 -5 5 -3 6 5 2
15 -9 15 -1 1 25 -5 11 -14 17 -19 14 -5 -3 -12 0 -16 6 -5 8 -3 9 6 4 8 -5
11 -3 8 6 -3 8 -10 14 -15 14 -6 0 -15 4 -20 9 -5 5 -3 6 5 2 18 -11 15 9 -5
25 -15 12 -16 12 -8 -1 5 -9 4 -12 -1 -7 -5 5 -9 16 -9 25 0 9 -5 17 -12 17
-7 0 -18 7 -25 15 -11 12 -11 12 6 0 42 -33 8 13 -74 96 -83 85 -213 190 -274
221 -44 22 -32 12 55 -46 42 -28 82 -58 90 -67 8 -10 -15 4 -50 30 -89 65
-175 111 -272 147 -164 60 -149 59 -1017 61 l-797 3 805 5 805 5 -792 3 -793
2 -2 103 -2 102 -6 -105 -6 -105 -2 103 -2 102 -632 0 -631 0 23 25 c13 14 26
23 28 20 7 -7 32 15 32 27 0 6 -8 4 -17 -3 -10 -7 -7 -1 6 14 27 30 41 37 20
10 -7 -10 -1 -7 14 6 30 27 38 52 10 30 -10 -7 -7 -1 6 14 27 30 41 37 20 10
-7 -10 -1 -7 14 6 30 27 38 52 10 30 -10 -7 -7 -1 6 14 27 30 41 37 20 10 -7
-10 -1 -7 14 6 27 25 37 48 15 35 -7 -4 -4 2 6 14 23 26 34 29 15 5 -7 -10 -1
-7 14 6 30 27 38 52 10 30 -10 -7 -7 -1 6 14 27 30 41 37 20 10 -7 -10 -1 -7
14 6 27 25 37 48 15 35 -7 -4 -4 2 6 14 23 26 34 29 15 5 -7 -10 -1 -7 14 6
30 27 38 52 10 30 -10 -7 -7 -1 6 14 27 30 41 37 20 10 -7 -10 -1 -7 14 6 27
25 37 48 15 35 -7 -4 -4 2 6 14 23 26 34 29 15 5 -7 -10 -1 -7 14 6 30 27 38
52 10 30 -10 -7 -7 -1 6 14 27 30 41 37 20 10 -10 -14 -8 -13 10 2 12 11 27
28 32 37 9 17 -81 18 -1871 18 -1034 0 -1880 -4 -1880 -8z m3620 -47 c0 -6
-403 -490 -443 -532 l-31 -33 -1270 0 -1271 0 -230 277 c-126 151 -231 280
-233 284 -2 5 766 9 1737 9 958 0 1741 -2 1741 -5z m799 -1312 c0 -373 -4
-698 -8 -723 -5 -25 -9 -37 -10 -26 -1 17 -8 18 -113 13 -62 -4 -1178 -8
-2480 -9 -1570 -2 -2368 -6 -2369 -13 0 -5 -4 -1 -9 10 -5 11 -9 336 -9 723
l-1 702 2500 0 2500 0 -1 -677z m1699 391 c322 -65 634 -334 761 -654 64 -162
59 -6 86 -2592 14 -1300 34 -3202 45 -4228 36 -3360 36 -3324 16 -3411 -59
-266 -314 -562 -616 -714 -103 -52 -213 -90 -300 -105 -47 -8 -1259 -10 -4305
-8 l-4240 3 -95 33 c-281 98 -521 316 -647 588 -71 155 -76 187 -81 599 -2
204 0 1484 4 2845 5 1361 11 2257 14 1990 3 -267 6 -440 8 -385 2 97 2 99 19
75 9 -14 19 -27 23 -30 3 -3 21 -25 40 -50 19 -25 37 -47 40 -50 3 -3 21 -25
40 -50 19 -25 37 -47 40 -50 3 -3 25 -30 50 -60 25 -30 52 -62 60 -70 8 -8 35
-40 60 -70 25 -30 56 -66 70 -80 14 -14 59 -63 100 -110 41 -46 138 -149 215
-228 l140 -144 6 34 c4 18 8 -50 10 -152 l3 -185 6 250 c3 138 5 697 5 1242 0
546 2 993 5 992 5 -1 1537 -1668 1789 -1946 69 -76 328 -358 575 -627 587
-636 1185 -1287 1780 -1936 264 -287 507 -550 540 -585 57 -59 104 -87 676
-408 572 -321 795 -456 1277 -773 62 -41 115 -74 118 -74 4 0 -6 24 -23 52
-16 29 -115 216 -221 415 -178 335 -238 461 -571 1208 -177 396 -199 438 -285
527 -45 46 -290 311 -545 589 -608 662 -1339 1457 -1879 2043 -238 259 -489
532 -556 606 -67 74 -293 320 -501 546 -1583 1717 -2039 2217 -2037 2233 1 10
-28 51 -66 93 l-69 74 -7 860 -7 861 308 6 c170 4 549 7 842 7 l532 0 0 -125
0 -125 2550 0 2550 0 0 635 0 635 785 0 c675 0 797 -2 863 -16z m-9938 -1361
c65 -38 356 -313 348 -330 -4 -10 -174 -168 -498 -462 -129 -118 -252 -230
-273 -250 l-37 -35 -55 54 c-30 30 -55 58 -55 63 0 5 7 4 15 -3 26 -22 16 -4
-12 21 -21 18 -24 19 -13 4 8 -11 0 -7 -18 9 -31 29 -44 54 -19 40 8 -5 7 -2
-2 9 -8 10 -16 15 -19 12 -7 -6 -42 25 -42 37 0 5 5 6 12 2 7 -4 8 -3 4 5 -4
6 -11 9 -16 6 -4 -3 -20 11 -34 29 -30 40 -34 54 -8 35 15 -13 16 -12 4 3 -8
10 -19 16 -24 15 -6 -1 -24 22 -39 51 -28 52 -28 55 -12 85 34 66 84 138 92
132 6 -3 13 0 17 6 4 8 3 9 -4 5 -19 -11 -14 9 6 27 10 10 22 14 26 10 4 -4 4
-1 1 8 -5 14 49 76 70 80 6 0 9 5 8 9 -10 36 431 358 492 359 11 1 50 -16 85
-36z m935 -888 c253 -275 488 -531 523 -569 l65 -69 -46 -41 c-25 -23 -217
-198 -426 -389 -210 -192 -385 -346 -390 -342 -5 3 -13 0 -17 -6 -4 -8 -3 -9
4 -5 17 10 15 1 -2 -13 -11 -10 -109 92 -522 542 -280 304 -517 562 -527 573
-17 20 -12 26 290 306 471 436 576 529 583 521 4 -4 213 -233 465 -508z m1097
-1150 c227 -247 1468 -1597 2757 -3000 1289 -1402 2361 -2568 2382 -2590 l39
-41 -456 -418 c-251 -229 -462 -420 -469 -422 -7 -3 -499 525 -1197 1283 -651
708 -1908 2075 -2792 3036 -884 962 -1606 1753 -1604 1758 5 14 912 849 920
846 3 -1 192 -204 420 -452z m5341 -5970 c178 -385 417 -919 417 -931 0 -6
-66 -70 -146 -142 l-146 -133 -31 20 c-18 10 -189 108 -382 216 -320 180 -439
252 -326 195 l43 -21 -28 53 c-16 29 -32 55 -36 56 -5 2 -8 7 -8 11 0 7 -30
63 -102 191 -14 25 -38 68 -53 97 l-28 52 -71 -61 c-112 -97 -24 -12 279 268
449 415 469 434 477 426 4 -4 68 -138 141 -297z"/>
<path d="M8870 8670 l0 -540 465 0 465 0 0 338 0 337 -20 -30 c-19 -28 -20
-47 -20 -312 l0 -283 -425 0 -425 0 0 490 0 490 425 0 425 0 0 -111 0 -112 20
26 c17 22 20 40 20 136 l0 111 -465 0 -465 0 0 -540z"/>
<path d="M8840 6613 l0 -538 465 0 465 0 0 336 c0 254 3 338 13 349 10 12 9
12 -5 1 -10 -7 -18 -19 -18 -26 0 -7 -7 -18 -15 -25 -13 -11 -15 -57 -15 -301
l0 -289 -425 0 -425 0 -2 490 -3 490 428 0 427 0 0 -111 0 -112 20 26 c17 22
20 40 20 136 l0 111 -465 0 -465 0 0 -537z"/>
<path d="M8920 4563 l0 -538 457 2 c252 2 459 5 461 8 1 3 2 150 2 327 0 285
-2 320 -15 302 -12 -16 -14 -70 -15 -306 l0 -288 -430 0 -430 0 2 493 3 492
428 3 427 2 0 -112 c0 -102 -2 -114 -22 -137 l-23 -26 28 24 c15 14 27 30 27
38 0 7 4 13 9 13 6 0 11 54 13 120 l3 120 -462 0 -463 0 0 -537z"/>
<path d="M8840 2493 l0 -538 465 0 465 0 0 336 c0 254 3 338 13 349 10 12 9
12 -5 1 -10 -7 -18 -19 -18 -26 0 -7 -7 -18 -15 -25 -13 -11 -15 -57 -15 -301
l0 -289 -425 0 -425 0 -2 490 -3 490 428 0 427 0 0 -111 0 -112 20 26 c17 22
20 40 20 136 l0 111 -465 0 -465 0 0 -537z"/>
<path d="M11803 10275 c0 -187 3 -554 6 -815 l7 -475 1 395 c0 217 -3 584 -6
815 l-7 420 -1 -340z"/>
<path d="M11823 8375 c0 -187 3 -554 6 -815 l7 -475 1 395 c0 217 -3 584 -6
815 l-7 420 -1 -340z"/>
<path d="M11843 6480 c0 -190 3 -559 6 -820 l7 -475 1 395 c0 217 -3 586 -6
820 l-7 425 -1 -345z"/>
<path d="M11863 4585 c0 -192 3 -564 6 -825 l7 -475 1 395 c0 217 -3 589 -6
825 l-7 430 -1 -350z"/>
</g>
</svg>
